<?xml version="1.0" encoding="UTF-8"?>
<!DOCTYPE svg PUBLIC "-//W3C//DTD SVG 1.1//EN" "http://www.w3.org/Graphics/SVG/1.1/DTD/svg11.dtd">
<svg xmlns="http://www.w3.org/2000/svg" version="1.1" width="579px" height="578px" style="shape-rendering:geometricPrecision; text-rendering:geometricPrecision; image-rendering:optimizeQuality; fill-rule:evenodd; clip-rule:evenodd" xmlns:xlink="http://www.w3.org/1999/xlink">
<g><path style="opacity:0.978" fill="#ffe4de" d="M 137.5,-0.5 C 138.5,-0.5 139.5,-0.5 140.5,-0.5C 171.215,3.71797 188.382,21.3846 192,52.5C 196.542,93.6251 178.376,111.458 137.5,106C 99.9307,99.3187 83.4307,77.1521 88,39.5C 95.7356,15.2597 112.236,1.92638 137.5,-0.5 Z"/></g>
<g><path style="opacity:0.995" fill="#cbe4fd" d="M -0.5,312.5 C -0.5,305.833 -0.5,299.167 -0.5,292.5C 3.64736,252.194 22.9807,221.528 57.5,200.5C 60.5278,205.041 64.1945,209.207 68.5,213C 87.5767,221.553 101.077,216.053 109,196.5C 109.499,191.511 109.666,186.511 109.5,181.5C 128.128,177.344 146.794,173.177 165.5,169C 187.004,163.246 207.004,154.246 225.5,142C 252.292,123.214 279.625,105.214 307.5,88C 326.909,77.0862 347.575,69.7529 369.5,66C 409.681,61.9524 445.347,72.6191 476.5,98C 514.854,130.732 540.687,171.566 554,220.5C 574.506,294.769 567.839,366.436 534,435.5C 498.887,500.273 446.053,543.44 375.5,565C 323.82,577.575 273.153,574.242 223.5,555C 168.042,532.36 119.876,499.193 79,455.5C 57.6516,433.161 38.985,408.827 23,382.5C 10.4264,360.612 2.59305,337.278 -0.5,312.5 Z"/></g>
<g><path style="opacity:0.196" fill="#fee502" d="M 109.5,181.5 C 91.4491,185.851 74.1157,192.184 57.5,200.5C 52.6921,184.285 57.6921,172.118 72.5,164C 90.0856,159.129 102.419,164.962 109.5,181.5 Z"/></g>
<g><path style="opacity:1" fill="#d6e5c9" d="M 109.5,181.5 C 109.666,186.511 109.499,191.511 109,196.5C 101.077,216.053 87.5767,221.553 68.5,213C 64.1945,209.207 60.5278,205.041 57.5,200.5C 74.1157,192.184 91.4491,185.851 109.5,181.5 Z"/></g>
<g><path style="opacity:0.945" fill="#ffe4de" d="M 526.5,474.5 C 547.743,475.32 555.577,485.987 550,506.5C 542.237,517.64 532.07,520.473 519.5,515C 508.785,506.429 506.618,495.929 513,483.5C 516.528,478.834 521.028,475.834 526.5,474.5 Z"/></g>
</svg>
